<svg xmlns="http://www.w3.org/2000/svg" width="150.416" height="85.949" viewBox="0 0 150.416 85.949"><defs><style>.a{opacity:0.6;}.b{fill:#545f75;}</style></defs><g class="a" transform="matrix(0.951, -0.309, 0.309, 0.951, -2.25, 41.608)"><path class="b" d="M411.508,360.607c15.526-7.03,63.313-28.5,71.662-32.239,2.352-1.055,6.032-3.556,8.549-3.9q2.415-1.3.324-.047a5.122,5.122,0,0,0-2.812,3.88,68.49,68.49,0,0,0-3.6,6.839c-.4.81.912,1.482,1.391.73,2.693-4.221,5.07-8.61,7.516-12.978.441-.789-.28-1.953-1.23-1.454-26.744,14.056-54.911,25.356-82.255,38.2A.536.536,0,0,0,411.508,360.607Z" transform="translate(-410.752 -314.035)"/><path class="b" d="M444.14,340.8c19.544-4.972,39.089-13.314,57.651-21.123.784-.329.38-1.687-.464-1.451-19.656,5.462-38.308,14.569-57.7,20.962C442.716,339.486,443.209,341.033,444.14,340.8Z" transform="translate(-367.565 -318.195)"/><path class="b" d="M411.792,356.1c11.97-1.559,23.69-5.892,35.127-9.594,6.557-2.121,13.085-4.328,19.625-6.5,1.972-.656,5.1-1.93,5.908-1.391.518.343-10.733,11.386-12.642,12.982-.882.735.061,1.876,1.013,1.566,31.137-10.11,62.868-17.817,94.358-26.669,1.038-.292.789-1.932-.3-1.68-20.7,4.814-41.243,10.593-61.657,16.482-8.377,2.415-17.152,6.3-25.72,7.751q-4.511-.633-3.656,1.622a71.122,71.122,0,0,0,5.264-5.145,85.715,85.715,0,0,0,7-8.841c.422-.6-.121-1.71-.929-1.454-20.967,6.659-41.892,15.719-63.649,19.415A.741.741,0,0,0,411.792,356.1Z" transform="translate(-410.496 -309.404)"/><path class="b" d="M462.087,325.606c8.348,1.657,18.046,1.017,26.555.938.728-.007,1.125-1.1.308-1.349-3.939-1.183-8.731-.593-12.791-.588-4.632,0-9.336.166-13.955-.233A.619.619,0,0,0,462.087,325.606Z" transform="translate(-343.022 -309.962)"/><path class="b" d="M475.977,318.724a73.961,73.961,0,0,0-7.495,6.811c-2.184,2.144-4.8,4.107-6.671,6.519-.334.434.215,1.113.7.833,2.651-1.519,4.779-4.072,6.927-6.218,2.394-2.389,4.884-4.687,7.254-7.1A.557.557,0,0,0,475.977,318.724Z" transform="translate(-342.811 -317.66)"/></g></svg>