<svg xmlns="http://www.w3.org/2000/svg" width="149.078" height="172.108" viewBox="0 0 149.078 172.108"><defs><style>.a{opacity:0.6;}.b{fill:#545f75;}</style></defs><g class="a"><path class="b" d="M533.764,373.44c9.983-18.551,28.544-51.54,36.035-71.225.277-.728-.766-1.057-1.105-.409-9.781,18.679-27.553,51.748-36.039,71.055C532.371,373.5,533.421,374.078,533.764,373.44Z" transform="translate(-511.922 -202.77)"/><path class="b" d="M533.5,362.121c13.482-13.523,37.58-40.238,49.992-54.725.405-.478-.329-1.088-.79-.717-14.705,11.808-38.093,40.082-50.2,54.538C532.016,361.8,532.951,362.665,533.5,362.121Z" transform="translate(-512.516 -190.186)"/><path class="b" d="M532.106,284.037a235.032,235.032,0,0,0,37.657,50.408.678.678,0,0,0,1.032-.877C557.75,317.051,545.342,300.516,533.1,283.4,532.709,282.849,531.781,283.448,532.106,284.037Z" transform="translate(-513.324 -244.655)"/><path class="b" d="M532.077,284.285c14.965,13.659,31.9,27.57,48.831,38.675.547.36,1.334-.391.811-.88-14.709-13.939-32.113-27.245-48.824-38.693C532.347,283.017,531.55,283.8,532.077,284.285Z" transform="translate(-513.654 -244.268)"/><path class="b" d="M527.808,302.55c10.325-.811,45.5-.01,55.522-2.817l-.825-1.75c-.215.19-.437.371-.651.554a.667.667,0,0,0,.36,1.161c.284.017.565.035.845.048a1,1,0,1,0-.08-1.985c-10.266,1.708-45.061,2.19-55.4,3.5C526.73,301.369,526.983,302.616,527.808,302.55Z" transform="translate(-525.611 -209.719)"/><path class="b" d="M529.09,299.645a1.776,1.776,0,0,0-1.916-1.026.683.683,0,0,0-.27,1.213c3.728,2.969,35.938,4.986,40.529,6.129,5.863,1.466,11.8,3.5,17.82,4.061a.659.659,0,0,0,.291-1.268c-5.506-2.228-11.691-3.146-17.474-4.511q-3.778-.883-7.554-1.777c-1.68-.4-27.99-2.4-29.67-2.789a2.772,2.772,0,0,0-2.363.478C528.8,300.365,529.311,300.016,529.09,299.645Z" transform="translate(-526.637 -207.815)"/><path class="b" d="M546.973,307.31c.052,7.353,2.852,15.519,4.951,22.511.315,1.043,1.989.787,1.7-.294-1.982-7.287-2.952-15.367-5.592-22.4A.559.559,0,0,0,546.973,307.31Z" transform="translate(-478.453 -188.62)"/><path class="b" d="M549.81,331.192c2.935-7.522,4.681-15.661,6.881-23.423.329-1.175-1.458-1.833-1.774-.658-2.152,7.844-4.889,15.786-6.275,23.811C548.525,331.614,549.571,331.812,549.81,331.192Z" transform="translate(-474.54 -189.415)"/><path class="b" d="M551.116,307.333c13.271,15.883,29.341,29.944,43.589,45.006.915.967,2.5-.371,1.583-1.344-14.127-15.027-28.239-31.641-44.4-44.517C551.368,306.058,550.7,306.831,551.116,307.333Z" transform="translate(-469.787 -190.698)"/><path class="b" d="M554.853,303.852c7.373,18.458,18.478,37.965,30.061,54.115.534.745,1.764-.062,1.344-.87-4.726-9.1-10.408-17.758-15.474-26.687s-9.494-18.336-14.989-27A.521.521,0,0,0,554.853,303.852Z" transform="translate(-460.442 -198.644)"/><path class="b" d="M546.852,329.272a363.474,363.474,0,0,0,9.442-48.117c.1-.755-1.14-1.064-1.331-.305-3.888,15.592-7.346,32.238-9.04,48.211C545.868,329.583,546.7,329.805,546.852,329.272Z" transform="translate(-480.993 -251.103)"/><path class="b" d="M557.46,325.086c-1.22-14.715-4.844-29.531-7.453-44.063a.762.762,0,0,0-1.5.267c1.192,14.715,5.128,29.483,7.723,44.011A.625.625,0,0,0,557.46,325.086Z" transform="translate(-474.86 -251.065)"/><path class="b" d="M551.734,333.763c8.583-8.243,16.2-17.619,24.119-26.5,8.68-9.743,17.886-19.272,25.761-29.691.336-.454-.329-1.074-.745-.676-8.607,8.212-16.313,17.5-24.227,26.375-8.679,9.736-18.007,19.2-25.9,29.594C550.293,333.465,551.177,334.3,551.734,333.763Z" transform="translate(-471.552 -258.971)"/><path class="b" d="M556.841,341.842c10.086-21.566,21-42.66,31.995-63.772.468-.9-1.1-1.739-1.591-.835-11.475,20.772-22.768,42.105-31.492,64.2C555.483,342.14,556.529,342.507,556.841,341.842Z" transform="translate(-459.012 -258.783)"/><path class="b" d="M556.223,312.937c9.566-2.689,37-18.988,46.27-22.546,1.053-.4.295-1.92-.741-1.566-9.321,3.226-36.915,18.9-45.886,22.969C555.263,312.071,555.551,313.128,556.223,312.937Z" transform="translate(-459.437 -231.199)"/><path class="b" d="M556.206,327.043c10.35-7.758,38.637-28.468,48.311-37.05a.749.749,0,0,0-.97-1.14c-10.371,7.72-38.464,28.668-48.155,37.223A.632.632,0,0,0,556.206,327.043Z" transform="translate(-460.352 -231.578)"/><path class="b" d="M555.493,300.542c10.222,4.556,42.133,18.652,52.992,21.344.832.2,1.317-.967.471-1.279-10.509-3.947-42.272-18.042-53.037-21.216A.614.614,0,0,0,555.493,300.542Z" transform="translate(-460.492 -206.186)"/><path class="b" d="M555.056,304.072c11.292.152,43.408,9.178,54.7,10.124a.891.891,0,0,0,.166-1.774c-11.126-.932-43.838-11.143-54.9-9.265C554.516,303.244,554.522,304.065,555.056,304.072Z" transform="translate(-461.628 -197.545)"/><path class="b" d="M536.728,285.92c.8-4.3,1.774-9.255,1.636-13.628-.017-.606-.988-.991-1.161-.263a67.256,67.256,0,0,0-1.642,13.776A.587.587,0,0,0,536.728,285.92Z" transform="translate(-505.473 -271.633)"/><path class="b" d="M536.153,272.279a34.193,34.193,0,0,0,1.216,5.849,24.336,24.336,0,0,0,1.639,5.53c.211.4.984.371.967-.166a27.223,27.223,0,0,0-1.362-5.928A41.13,41.13,0,0,0,537.005,272C536.794,271.5,536.122,271.8,536.153,272.279Z" transform="translate(-504.076 -271.359)"/><path class="b" d="M533.005,281.111c2.065-.7,4.1-1.459,6.129-2.238a25.086,25.086,0,0,0,5.43-2.332c.423-.288.045-.946-.405-.87a28.769,28.769,0,0,0-5.565,2.065c-2.013.814-4.009,1.642-5.97,2.574C532.1,280.564,532.475,281.291,533.005,281.111Z" transform="translate(-512.504 -261.692)"/><path class="b" d="M532.952,278.509a109.5,109.5,0,0,1,11.181-.371.648.648,0,0,0,.121-1.289,49.308,49.308,0,0,0-11.462.752C532.2,277.685,532.374,278.554,532.952,278.509Z" transform="translate(-512.375 -259.042)"/><path class="b" d="M538.187,277.183c-1.577,3.538-3.5,8.451-3.267,12.384.031.565.821.523,1.008.1.825-1.888,1-4.071,1.549-6.06.554-2.02,1.265-3.985,1.9-5.98A.636.636,0,0,0,538.187,277.183Z" transform="translate(-507.046 -258.925)"/><path class="b" d="M535.911,288.474a71.671,71.671,0,0,1,6.524-10.2c.478-.658-.551-1.379-1.036-.728a52.488,52.488,0,0,0-6.393,10.6C534.761,288.72,535.641,289.018,535.911,288.474Z" transform="translate(-506.913 -257.697)"/><path class="b" d="M537.2,278.067a82,82,0,0,0,8.919,4.186c.811.353,1.265-.915.475-1.275a82.075,82.075,0,0,0-8.926-3.808C537.151,277,536.683,277.762,537.2,278.067Z" transform="translate(-502.165 -258.042)"/><path class="b" d="M538.133,277.485c2.193,1.868,3.794,4.362,6.1,6.105.693.523,1.414-.551.759-1.085-2.211-1.833-3.964-4.137-6.289-5.842C538.181,276.272,537.647,277.073,538.133,277.485Z" transform="translate(-499.856 -259.49)"/><path class="b" d="M537.443,278.639c2.124-.44,4.206-1.188,6.3-1.771a23.912,23.912,0,0,0,5.613-1.93c.509-.3.312-1.182-.329-1.043-2.128.457-4.2,1.251-6.278,1.847a24.306,24.306,0,0,0-5.582,2C536.719,277.994,536.885,278.757,537.443,278.639Z" transform="translate(-502.341 -266.091)"/><path class="b" d="M538.436,283.231c2.675-2.63,5.2-5.426,7.768-8.16.489-.516-.232-1.372-.721-.849-2.561,2.8-5.194,5.558-7.651,8.454C537.532,283.03,538.1,283.557,538.436,283.231Z" transform="translate(-500.324 -265.652)"/><path class="b" d="M527.975,301.773c2-.648,3.645-2.072,5.558-2.935a.6.6,0,0,0,.353-.506c.107-2.6.18-5.2.3-7.8-.395.073-.783.139-1.174.208.669,1.892,1.223,5.856,2.917,7.03,1.649,1.147,5.18.842,7.107,1.043l-.052-1.389c-2.055.54-3.7,1.677-5.648,2.467a.632.632,0,0,0-.34.665c.215,2.623-.055,5.235.184,7.855.4-.121.787-.243,1.178-.371-1.119-1.934-1.41-5.156-3.011-6.67-1.857-1.743-5.339-.347-7.491-.579a.62.62,0,0,0-.114,1.233c2.01.243,5.61-1.109,7.041.662,1.088,1.344,1.587,4.29,2.449,5.887a.627.627,0,0,0,1.178-.374c-.121-1.559-.624-5.052-.09-6.594.551-1.587,3.434-2.439,4.91-2.8a.7.7,0,0,0-.059-1.386c-1.726-.208-5.034.038-6.41-.987-1.41-1.057-2.03-4.588-2.637-6.22a.619.619,0,0,0-1.168.2c-.066,2.041.416,6.226-.835,7.737-.918,1.095-3.364,2.211-4.494,2.89A.4.4,0,0,0,527.975,301.773Z" transform="translate(-525.238 -228.547)"/><path class="b" d="M551.347,327.046c2.924-.412,4.681-3.24,5.454-5.863.655-2.217,1.424-6.2-.648-7.879a.886.886,0,0,0-1.327.416c-.579,1.8.163,3.891-.166,5.79a7.741,7.741,0,0,1-3.874,5.779A.934.934,0,0,0,551.347,327.046Z" transform="translate(-470.622 -173.97)"/><path class="b" d="M552.021,313.508a8.4,8.4,0,0,0,3,8.919c2.263,1.656,7.765,2.5,9.376-.447a.945.945,0,0,0-.672-1.455c-1.285-.26-2.457.5-3.749.592a5.4,5.4,0,0,1-3.437-.856c-2.325-1.535-2.519-4.106-2.914-6.608A.842.842,0,0,0,552.021,313.508Z" transform="translate(-467.37 -174.385)"/><path class="b" d="M557.649,327.735a11.206,11.206,0,0,1-2-5.907c.107-3.08,2.509-2.685,4.189-4.484a.874.874,0,0,0-.062-1.362c-3.032-1.965-6.452,1.663-6.964,4.522A8.724,8.724,0,0,0,556.159,329C556.928,329.537,558.2,328.629,557.649,327.735Z" transform="translate(-464.93 -168.35)"/><path class="b" d="M551.354,319.063c4.615-.537,7.044,3.181,9.653,6.334.949,1.147,2.99-.087,2.235-1.441-2.013-3.607-8.167-10.156-12.64-6.5A.928.928,0,0,0,551.354,319.063Z" transform="translate(-470.724 -165.987)"/><path class="b" d="M564.5,297.154a10.088,10.088,0,0,1,2.495,4.023c.5,1.687.263,3.33.388,5.045.083,1.171,1.83,1.2,2.2.2,1.293-3.527-.395-8.884-3.652-10.831C564.94,295,563.623,296.212,564.5,297.154Z" transform="translate(-438.057 -215.293)"/><path class="b" d="M567.113,304.625c.585-1.566,1.164-3.222,2.567-4.252,1.449-1.064,3.316-.762,4.712-1.791a.9.9,0,0,0-.066-1.414c-1.843-1.24-4.712.028-6.292,1.268a7.537,7.537,0,0,0-2.876,5.745A1.015,1.015,0,0,0,567.113,304.625Z" transform="translate(-435.72 -212.344)"/><path class="b" d="M564.662,299.372a6.581,6.581,0,0,0,5.7.371c1.677-.648,4.006-2.294,3.953-4.283a.824.824,0,0,0-1.157-.807c-1.362.582-2.055,2.048-3.413,2.717a6.779,6.779,0,0,1-4.435.229A.984.984,0,0,0,564.662,299.372Z" transform="translate(-437.967 -217.241)"/><path class="b" d="M567.483,294.75a8.58,8.58,0,0,0-.786,6.483c.482,1.757,1.871,4.626,4.006,4.556a.967.967,0,0,0,.949-1.355c-.291-.752-.856-1.1-1.362-1.7a6.018,6.018,0,0,1-1.185-2.415,11.262,11.262,0,0,1,.048-4.951A.927.927,0,0,0,567.483,294.75Z" transform="translate(-432.694 -217.825)"/><path class="b" d="M534.044,311.7a6.842,6.842,0,0,0,1.812,1.83,11.067,11.067,0,0,0,2.3,1.819c.613.308,1.251-.5.963-1.053-.786-1.542-2.789-3.572-4.629-3.461A.617.617,0,0,0,534.044,311.7Z" transform="translate(-509.217 -178.692)"/><path class="b" d="M536.2,316.4a9.3,9.3,0,0,1,1.663-2.384,8.64,8.64,0,0,0,1.777-1.968.974.974,0,0,0-.953-1.5c-2.342.308-4.31,2.793-4.833,4.979A1.252,1.252,0,0,0,536.2,316.4Z" transform="translate(-509.635 -179.411)"/><path class="b" d="M564.214,284.673c.724.177,1.784.322,2.069,1.074.347.911-.461,2.1-.218,3.108a1.143,1.143,0,0,0,1.84.662c1.455-1.026,1.753-3.673,1.012-5.239-.835-1.76-2.727-2.2-4.5-1.881C563.344,282.591,563.022,284.379,564.214,284.673Z" transform="translate(-439.92 -246.355)"/><path class="b" d="M564.617,285.648c2.086.3,6.025-.274,6.812-2.619a1.045,1.045,0,0,0-1.151-1.379,22.03,22.03,0,0,0-2.609,1.15,21.961,21.961,0,0,1-3.139.731A1.074,1.074,0,0,0,564.617,285.648Z" transform="translate(-439.377 -247.933)"/><path class="b" d="M568.532,281.5a3.611,3.611,0,0,0-3.766,3.766c.225,2.089,2.606,4.383,4.705,3.683a.9.9,0,0,0,.5-.97c-.371-1.372-1.9-1.552-2.332-2.758-.378-1.053,1.008-1.566,1.549-2.3A.912.912,0,0,0,568.532,281.5Z" transform="translate(-436.726 -248.299)"/><path class="b" d="M566.166,288.472a8.328,8.328,0,0,1,1.722-2.349c.783-.655,1.788-.662,2.585-1.285a.966.966,0,0,0-.069-1.518c-2.917-1.809-5.52,2.068-5.953,4.522A.951.951,0,0,0,566.166,288.472Z" transform="translate(-437.496 -245.032)"/></g></svg>