<svg xmlns="http://www.w3.org/2000/svg" width="18.42" height="18" viewBox="0 0 18.42 18"><defs><style>.a{fill:#fff;}</style></defs><path class="a" d="M218.557,92.929c-1.563,2.414-3.1,4.845-4.634,7.276l.82.3c.092-2.656.742-5.94-.244-8.487-.19-.487-.851-.19-.817.26.21,2.741.16,5.393.16,8.142,0,.409.564.724.821.3,1.5-2.461,3-4.918,4.465-7.395C219.357,92.947,218.8,92.548,218.557,92.929Z" transform="translate(-207.201 -82.925)"/><path class="a" d="M215.97,93a38.514,38.514,0,0,1-6.365-1.714q-.038.42-.075.836a11.251,11.251,0,0,0,2.84-1.206,11.908,11.908,0,0,0,2.419-1.467.336.336,0,0,0-.273-.582,5.785,5.785,0,0,0-2.19,1.045,11.6,11.6,0,0,1-2.945,1.353.438.438,0,0,0-.075.835,23.835,23.835,0,0,0,6.6,1.578A.341.341,0,0,0,215.97,93Z" transform="translate(-209.033 -84.058)"/><path class="a" d="M214.073,90.724a34.328,34.328,0,0,1-2.57-4.733c-.195.211-.389.425-.583.637a20.717,20.717,0,0,1,6.681,3.309c.562.377,1.169-.49.6-.86a20.975,20.975,0,0,0-7.078-3.351c-.366-.076-.6.37-.465.665A25.642,25.642,0,0,0,213.5,91.1C213.723,91.409,214.28,91.059,214.073,90.724Z" transform="translate(-208.399 -85.297)"/><path class="a" d="M216.883,89.9c2.074-1.128,4.109-2.335,6.142-3.536l-.671-.614a28.991,28.991,0,0,1-2.9,5.836.49.49,0,0,0,.8.561,29.738,29.738,0,0,0,3.017-6.055c.153-.374-.3-.836-.673-.614a53.512,53.512,0,0,0-6.135,3.78C216.131,89.522,216.494,90.108,216.883,89.9Z" transform="translate(-206.16 -85.415)"/><path class="a" d="M217.951,94.945a30.939,30.939,0,0,1,5.478,1.378.482.482,0,0,0,.531-.76c-.838-.981-1.625-2.012-2.428-3.022a7.881,7.881,0,0,0-2.241-2.407.361.361,0,0,0-.477.4,9.427,9.427,0,0,0,1.938,2.67c.81,1.008,1.627,2,2.479,2.979l.531-.76a21.5,21.5,0,0,0-5.741-1.193C217.549,94.185,217.507,94.857,217.951,94.945Z" transform="translate(-205.648 -83.586)"/></svg>