<svg xmlns="http://www.w3.org/2000/svg" width="67.335" height="69.445" viewBox="0 0 67.335 69.445"><defs><style>.a{opacity:0.6;}.b{fill:#ff6510;}</style></defs><g class="a" transform="translate(20.74 -25.348) rotate(30)"><path class="b" d="M214.123,308.591c5.463.276,9.97-2.054,13.6-5.99,3.089-3.348,7.3-9.267,6.933-14-.059-.77-1.192-.928-1.6-.347-1.057,1.505-1.415,3.3-2.14,4.972a29.559,29.559,0,0,1-4,6.7c-3.178,3.98-7.577,6.959-12.849,7.27C213.25,307.243,213.319,308.553,214.123,308.591Z" transform="translate(-188.127 -260.581)"/><path class="b" d="M219.871,289.014c-1.72,3.791-.781,9.434.574,13.183a15.074,15.074,0,0,0,11.88,10.166,1.293,1.293,0,0,0,.581-2.494c-5.656-1.669-9.084-4.828-10.577-10.512-.9-3.419-.509-6.776-.965-10.21C221.26,288.352,220.164,288.368,219.871,289.014Z" transform="translate(-174.717 -259.359)"/><path class="b" d="M212.116,295.418c5.43,1.136,9.727,2.838,12.846,7.6,2.856,4.369,2.429,8.8,3.871,13.488a.869.869,0,0,0,1.645.144c2-4.95-1.034-12.027-4.057-16.052-3.24-4.321-8.726-7.678-14.362-6.628A.731.731,0,0,0,212.116,295.418Z" transform="translate(-192.054 -247.863)"/><path class="b" d="M218.213,311.828c3.053-3.6,5.581-7.575,9.553-10.333,4.491-3.117,9.024-2.976,14.241-3.473.88-.084.877-1.3.148-1.592-10.521-4.17-21.443,5.993-25.527,14.586C216.171,311.978,217.6,312.55,218.213,311.828Z" transform="translate(-195.828 -231.849) rotate(-3)"/><path class="b" d="M226.607,297.7c1.238.546,2.492,1.062,3.713,1.643.991.472,1.858,1.249,2.866,1.656a.858.858,0,0,0,1.139-.7c.368-2.616-5.2-3.954-7.005-4.484A1.007,1.007,0,0,0,226.607,297.7Z" transform="translate(-160.977 -243.039)"/><path class="b" d="M221.25,300.592a12.234,12.234,0,0,1,1.957,3.123c.46,1.04.647,2.18,1.159,3.191a.8.8,0,0,0,1.49-.257c.5-2.52-1.471-5.518-3.135-7.277C221.881,298.486,220.44,299.661,221.25,300.592Z" transform="translate(-172.185 -236.265)"/><path class="b" d="M219.269,302.938c-.709,4.818-3.023,9.113-4.005,13.831-.154.745,1.06,1.175,1.438.517a39.119,39.119,0,0,0,4.412-14.178C221.259,301.946,219.44,301.789,219.269,302.938Z" transform="translate(-183.957 -229.61)"/><path class="b" d="M212.962,302.492a10.2,10.2,0,0,1,2.5-1.569c.857-.35,1.783-.453,2.62-.847a.786.786,0,0,0-.269-1.486c-2.3-.465-4.521.982-6.086,2.475A.945.945,0,0,0,212.962,302.492Z" transform="translate(-191.791 -237.446)"/><path class="b" d="M205.73,292.831c5.167.892,10.594,2.3,15.853,2.353.844.006,1.261-1.217.351-1.5-5.088-1.573-10.764-1.9-16.03-2.642C204.722,290.88,204.581,292.632,205.73,292.831Z" transform="translate(-204.939 -253.704)"/><path class="b" d="M212.371,289.97a12.16,12.16,0,0,0,4.245,4.889c.624.376,1.527-.238,1.146-.95-.942-1.759-2.649-3-3.647-4.751C213.513,288.111,211.839,288.856,212.371,289.97Z" transform="translate(-190.02 -258.888)"/><path class="b" d="M222.612,280.334c.312,4.956-.932,9.739-1.018,14.656-.016.8,1.2,1.188,1.471.331a37.477,37.477,0,0,0,1.385-15.3C224.309,278.832,222.54,279.188,222.612,280.334Z" transform="translate(-170.897 -279.284)"/><path class="b" d="M224.593,294.284c1.746-.632,3.555-1.1,5.331-1.65a8.423,8.423,0,0,0,4.018-1.993.821.821,0,0,0-.607-1.287,13.867,13.867,0,0,0-4.56,1.223,40.807,40.807,0,0,0-5,2.016A.94.94,0,0,0,224.593,294.284Z" transform="translate(-168.572 -257.365)"/></g></svg>